<svg width="32" height="32" viewBox="0 0 32 32" fill="none" xmlns="http://www.w3.org/2000/svg" preserveAspectRatio="none">
<path fill-rule="evenodd" clip-rule="evenodd" d="M6.87434 0.173383C5.84403 0.679322 5.91025 -0.136563 5.81951 13.1483L5.73744 25.1529L4.21992 23.7137C3.38514 22.9221 2.54872 22.227 2.3611 22.169C1.49672 21.9015 0.393754 22.4692 0.101642 23.332C-0.218874 24.2788 0.0150847 24.5954 3.86561 28.4255C5.84208 30.3915 7.54617 32 7.65261 32C7.7592 32 9.49259 30.3612 11.5048 28.3583C15.3628 24.5183 15.4755 24.365 15.1889 23.3533C14.9439 22.4883 13.8222 21.8968 12.9426 22.169C12.755 22.227 11.9159 22.9246 11.0781 23.7192L9.55478 25.1639L9.49812 13.1722C9.44714 2.33615 9.41799 1.14737 9.19584 0.83903C8.63838 0.065405 7.66337 -0.214231 6.87434 0.173383ZM14.0801 5.40486C13.9979 5.43168 13.7469 5.49302 13.5222 5.54126C13.0694 5.6386 12.6599 6.26184 12.6599 6.8539C12.6599 7.05689 12.8562 7.43721 13.096 7.69893L13.5322 8.17485L21.5798 8.21638C26.0061 8.23925 30.024 8.20647 30.5087 8.14352C31.2218 8.05099 31.4482 7.95262 31.6969 7.62782C32.163 7.01885 32.0851 6.24086 31.5077 5.73798L31.043 5.33331L22.6363 5.34483C18.0126 5.35109 14.1623 5.3782 14.0801 5.40486ZM14.5286 10.3886C13.3545 10.4644 13.1304 10.5523 12.8724 11.0387C12.5789 11.5917 12.6825 12.2502 13.1368 12.7216L13.4596 13.0565H18.5789C21.3944 13.0565 23.807 13.0157 23.94 12.966C24.2638 12.8449 24.6202 12.1475 24.6162 11.643C24.6108 10.9823 24.1614 10.5549 23.3326 10.4223C22.6379 10.3109 16.1165 10.286 14.5286 10.3886ZM13.1542 15.4481C12.8058 15.7402 12.7347 15.9155 12.7347 16.4809C12.7347 17.0463 12.8058 17.2216 13.1542 17.5136C13.5597 17.8535 13.6524 17.8652 15.967 17.8652C18.9544 17.8652 19.3776 17.6934 19.3776 16.4809C19.3776 15.2683 18.9544 15.0965 15.967 15.0965C13.6524 15.0965 13.5597 15.1082 13.1542 15.4481Z" fill="#2F2F30"/>
</svg>
